# xmcd
#
# Track frame offsets:
#	150
#	21265
#	47400
#	67649
#	84405
#	101629
#	120518
#	141167
#	166123
#	184081
#	204728
#	220814
#
# Disc length: 3235
#
# Revision: 2
# Processed by: cddbd v1.5.1PL0 Copyright (c) Steve Scherf et al.
# Submitted via: ExactAudioCopy v0.90b4
# Normalized: r1:DSETVAR1
#
DISCID=9a0ca10c
DTITLE=Various Artist - Absolute Body and Soul [CD1]
DYEAR=2003
DGENRE=Rhythmic Soul
TTITLE0=Joe - I Wanna Know
TTITLE1=D'Angelo - Lady
TTITLE2=Angie Stone - Brotha
TTITLE3=Lucy Pearl - Dance Tonight
TTITLE4=Usher - Nice and Slow
TTITLE5=Monica - Angel of Mine
TTITLE6=Rome - I Belong to You (Every Time I See Your Face)
TTITLE7=K-Ci and Jojo - All My Life
TTITLE8=En Vogue - Giving Him Somthing He Can Feel
TTITLE9=Brian McKnight - Anytime
TTITLE10=Jimmy Cozier - She's All I Got
TTITLE11=Tyrese - Sweet Lady
EXTD=
EXTT0=
EXTT1=
EXTT2=
EXTT3=
EXTT4=
EXTT5=
EXTT6=
EXTT7=
EXTT8=
EXTT9=
EXTT10=
EXTT11=
PLAYORDER=
